# xmcd
#
# Track frame offsets:
#	150
#	21296
#	43103
#	57486
#	85557
#	112068
#	127469
#
# Disc length: 1985 seconds
#
# Revision: 1
# Processed by: cddbd v1.5.2PL0 Copyright (c) Steve Scherf et al.
# Submitted via: audiograbber 1.83.01
#
DISCID=6307bf07
DTITLE=Gravedigger Jones - R.I.P.
DYEAR=2017
DGENRE=Blues
TTITLE0=Digital Phone Blues
TTITLE1=Over The Border
TTITLE2=Speak Of The Devil
TTITLE3=Time Of My Dying
TTITLE4=Gravedigger Jo
TTITLE5=Stone Cold Alone
TTITLE6=Back To Amsterdam
EXTD=
EXTT0=
EXTT1=
EXTT2=
EXTT3=
EXTT4=
EXTT5=
EXTT6=
PLAYORDER=
